<svg id="Layer_1" data-name="Layer 1" xmlns="http://www.w3.org/2000/svg" viewBox="0 0 366.3 132.97"><defs><style>.cls-1{fill:#231f20;}</style></defs><title>cloud</title><path class="cls-1" d="M129,283.84c34.95-.84,69,8,103.24,13.71,17.08,2.84,34.36,5,51.71,4.68,17.8-.29,35.39-3.38,52.84-6.65s35.1-6.75,53-7.54c9.21-.41,18.44-.16,27.65-.53a83,83,0,0,0,12.7-1.07,7.31,7.31,0,0,0,6.23-7.64c-.16-3.57-1.87-7-3.27-10.22a99.58,99.58,0,0,0-4.78-9.52,105.6,105.6,0,0,0-12.46-17.37A103.3,103.3,0,0,0,381.35,216c-7.64-3.49-15.87-6.23-24.36-6.2a39.4,39.4,0,0,0-20.79,6.33,76.35,76.35,0,0,0-16.32,14.6c-2.4,2.74-4.69,5.58-6.95,8.45-2,2.54-3.73,5.15-4,8.47-.25,2.85,1.12,5.42,4,6.21A2.58,2.58,0,0,0,316,252.1c4.86-12.13-.1-25.36-4.54-36.81-2.08-5.36-4.41-10.69-8.17-15.11-3.89-4.57-9.25-7.22-14.83-9.14-6.38-2.19-12.91-4-19.37-5.91l-10.18-3.06c-3-.92-6.19-2-9.41-1.62-6.34.69-9.36,6.66-12,11.72a137.89,137.89,0,0,0-15.73,60.39c-.07,2.29,2.72,3.13,4.27,1.76,8.78-7.73,4.39-21.17-.83-29.59-6.33-10.22-14.91-18.72-24.4-26-9.73-7.45-20.39-13.57-31.19-19.31-5.65-3-11.32-6.34-17.35-8.55-5.84-2.13-12.38-2.42-17.81,1-9.29,5.77-11.7,17.39-14.47,27.12-1.43,5-3.25,10.32-7.2,13.9-4.52,4.12-10.84,3.66-16.52,3.44-6-.22-12.21-.08-17.22,3.57a22.27,22.27,0,0,0-8.19,12.72c-3.06,12.24,3,23.62,10.31,33.06,1.94,2.52,3.91,5,6,7.42a15.73,15.73,0,0,0,7.11,5.15c3,.91,6.14.14,9-.84,2.46-.84,5-2,7.69-1.63,4,.51,7.06,3.78,9.66,6.54,3.08,3.25,6,6.74,9.78,9.23a17,17,0,0,0,6,2.5c3.14.62,4.48-4.2,1.32-4.82-3.9-.77-6.83-3.37-9.52-6.15-3-3.06-5.68-6.39-9.11-9A15,15,0,0,0,107.22,271c-2.87.5-5.49,1.87-8.33,2.48s-5-.52-6.93-2.49a85.67,85.67,0,0,1-11.07-14.23c-3-4.67-5.52-10-5.88-15.57a22.09,22.09,0,0,1,3.22-13.35c2.77-4.27,7.18-6.26,12.16-6.54,5.9-.32,11.86.83,17.69-.54a19.47,19.47,0,0,0,12.11-9.18c5.35-8.76,5.49-19.55,10.56-28.46,2.2-3.86,5.33-7.34,9.79-8.48,6.24-1.61,12.59,1.87,18,4.65a344.67,344.67,0,0,1,30,17c9.43,6.15,18.34,13.24,25.65,21.86a64.41,64.41,0,0,1,9.07,13.47c2,4.11,3.46,9.22,2.44,13.78a9.9,9.9,0,0,1-3.24,5.46l4.27,1.77a133.56,133.56,0,0,1,5.61-34.72,130.69,130.69,0,0,1,6.19-16.52q1.8-3.94,3.85-7.76c1.23-2.29,2.44-4.86,4.38-6.65,2.18-2,4.95-1.65,7.61-.95,3,.79,6,1.77,8.95,2.67L282,194.25c5.1,1.54,10.49,3.09,14.71,6.48s6.62,8,8.64,12.75a121,121,0,0,1,6.25,17.91c1.62,6.45,2.08,13.09-.44,19.38l3.07-1.75c-.78-.22-.27-.16-.28,0,0,.29,0-.1,0-.19,0-.27-.06-.6,0-.89a8.54,8.54,0,0,1,1.5-3.74,87.49,87.49,0,0,1,6-7.56c4.38-5.22,9.11-10.34,14.64-14.35s11.63-6.84,18.35-7.37c8.08-.63,16.12,1.72,23.45,5a100.15,100.15,0,0,1,49.51,48.28,49.84,49.84,0,0,1,3.71,9.24c.28,1.15.6,2.78-.49,3.63-1.26,1-3.69.87-5.17,1-4.3.39-8.61.56-12.92.65-8.62.18-17.24,0-25.85.55-16.79,1-33.35,4.21-49.85,7.31s-33.07,6.11-49.88,6.65c-16.34.52-32.65-1.15-48.77-3.69-32.36-5.08-64.36-13.46-97.24-14.58q-6-.19-11.92-.05c-3.22.07-3.23,5.07,0,5Z" transform="translate(-70 -169.29)"/><path class="cls-1" d="M128,281.57l-2.91-.13,2.41,1.83a7.06,7.06,0,0,1-.21-.91l.09.66a6,6,0,0,1,0-1.47l-.09.66a6.38,6.38,0,0,1,.4-1.42l-.26.6.12-.25-2.16,1.24.43.06-.67-.09a24.56,24.56,0,0,1,6.24,1.7l-.6-.25.92.41a2.7,2.7,0,0,0,1.93.26,2.51,2.51,0,0,0,.6-4.57,28,28,0,0,0-8.85-2.52,2.42,2.42,0,0,0-2.16,1.24,8.17,8.17,0,0,0-.55,6,2.57,2.57,0,0,0,2.41,1.84l2.91.13a2.51,2.51,0,0,0,2.5-2.5,2.57,2.57,0,0,0-2.5-2.5Z" transform="translate(-70 -169.29)"/></svg>